<svg xmlns="http://www.w3.org/2000/svg" width="256" height="256" viewBox="0 0 256 256" fill="none">
  <defs>
    <radialGradient id="bg" cx="0" cy="0" r="1" gradientUnits="userSpaceOnUse" gradientTransform="translate(84 64) rotate(48) scale(184)">
      <stop stop-color="#E0F2FE"/>
      <stop offset="0.24" stop-color="#38BDF8"/>
      <stop offset="0.62" stop-color="#0E7490"/>
      <stop offset="1" stop-color="#083344"/>
    </radialGradient>
    <linearGradient id="windA" x1="28" y1="156" x2="228" y2="58" gradientUnits="userSpaceOnUse">
      <stop stop-color="#ECFEFF"/>
      <stop offset="0.45" stop-color="#A7F3D0"/>
      <stop offset="1" stop-color="#67E8F9"/>
    </linearGradient>
    <linearGradient id="windB" x1="34" y1="177" x2="224" y2="82" gradientUnits="userSpaceOnUse">
      <stop stop-color="#CFFAFE"/>
      <stop offset="0.55" stop-color="#7DD3FC"/>
      <stop offset="1" stop-color="#E0F2FE"/>
    </linearGradient>
    <linearGradient id="bolt" x1="105" y1="58" x2="147" y2="199" gradientUnits="userSpaceOnUse">
      <stop stop-color="#ECFEFF"/>
      <stop offset="0.42" stop-color="#A7F3D0"/>
      <stop offset="1" stop-color="#67E8F9"/>
    </linearGradient>
    <filter id="badgeGlow" x="-30" y="-30" width="316" height="316" color-interpolation-filters="sRGB" filterUnits="userSpaceOnUse">
      <feDropShadow dx="0" dy="0" stdDeviation="7" flood-color="#67E8F9" flood-opacity="0.78"/>
      <feDropShadow dx="0" dy="0" stdDeviation="18" flood-color="#0EA5E9" flood-opacity="0.35"/>
    </filter>
    <filter id="strokeShadow" x="0" y="0" width="256" height="256" color-interpolation-filters="sRGB" filterUnits="userSpaceOnUse">
      <feDropShadow dx="0" dy="3" stdDeviation="3" flood-color="#082F49" flood-opacity="0.5"/>
    </filter>
    <filter id="boltGlow" x="50" y="20" width="160" height="220" color-interpolation-filters="sRGB" filterUnits="userSpaceOnUse">
      <feDropShadow dx="0" dy="0" stdDeviation="4" flood-color="#ECFEFF" flood-opacity="0.8"/>
      <feDropShadow dx="0" dy="5" stdDeviation="5" flood-color="#082F49" flood-opacity="0.48"/>
    </filter>
  </defs>

  <circle cx="128" cy="128" r="102" fill="url(#bg)" stroke="#A7F3D0" stroke-width="10" filter="url(#badgeGlow)"/>
  <circle cx="128" cy="128" r="88" stroke="#BAE6FD" stroke-width="2" opacity="0.22"/>

  <g filter="url(#strokeShadow)">
    <path d="M34 95C76 82 117 94 158 92C206 90 221 50 195 32C169 14 136 36 145 66C153 94 187 90 190 66" stroke="#062F3A" stroke-width="19" stroke-linecap="round" stroke-linejoin="round" opacity="0.7"/>
    <path d="M33 132C85 116 133 130 176 127C219 124 237 91 215 70C190 47 157 67 164 98C170 123 200 121 204 99" stroke="#062F3A" stroke-width="19" stroke-linecap="round" stroke-linejoin="round" opacity="0.7"/>
    <path d="M36 169C78 153 123 157 158 175C198 196 187 231 154 227C128 223 119 194 139 177C157 162 181 172 181 194" stroke="#062F3A" stroke-width="19" stroke-linecap="round" stroke-linejoin="round" opacity="0.7"/>

    <path d="M34 95C76 82 117 94 158 92C206 90 221 50 195 32C169 14 136 36 145 66C153 94 187 90 190 66" stroke="url(#windA)" stroke-width="11" stroke-linecap="round" stroke-linejoin="round"/>
    <path d="M33 132C85 116 133 130 176 127C219 124 237 91 215 70C190 47 157 67 164 98C170 123 200 121 204 99" stroke="url(#windB)" stroke-width="11" stroke-linecap="round" stroke-linejoin="round"/>
    <path d="M36 169C78 153 123 157 158 175C198 196 187 231 154 227C128 223 119 194 139 177C157 162 181 172 181 194" stroke="#ECFEFF" stroke-width="11" stroke-linecap="round" stroke-linejoin="round"/>

    <path d="M55 97C91 91 122 100 154 99" stroke="#FFFFFF" stroke-width="4" stroke-linecap="round" opacity="0.58"/>
    <path d="M55 134C94 127 126 136 164 134" stroke="#FFFFFF" stroke-width="4" stroke-linecap="round" opacity="0.5"/>
    <path d="M57 170C88 160 123 163 151 176" stroke="#FFFFFF" stroke-width="3.5" stroke-linecap="round" opacity="0.42"/>
  </g>

  <path
    d="M126 50L89 124L122 118L99 203L169 99L135 108L154 50H126Z"
    fill="url(#bolt)"
    stroke="#155E75"
    stroke-width="7"
    stroke-linejoin="round"
    filter="url(#boltGlow)"
  />
  <path d="M126 72L106 113L126 110" stroke="#FFFFFF" stroke-width="5" stroke-linecap="round" stroke-linejoin="round" opacity="0.66"/>
  <circle cx="68" cy="70" r="5" fill="#ECFEFF" opacity="0.85"/>
  <circle cx="210" cy="173" r="4" fill="#99F6E4" opacity="0.8"/>
</svg>
