<svg xmlns="http://www.w3.org/2000/svg" viewBox="0 0 256 256">
  <defs>
    <radialGradient id="bg" cx="48%" cy="42%" r="60%">
      <stop offset="0" stop-color="#4a2a16"/>
      <stop offset="1" stop-color="#140905"/>
    </radialGradient>
    <linearGradient id="antler" x1="30" y1="20" x2="220" y2="220">
      <stop offset="0" stop-color="#fde68a"/>
      <stop offset="1" stop-color="#d97706"/>
    </linearGradient>
  </defs>
  <circle cx="128" cy="128" r="116" fill="url(#bg)" stroke="#f59e0b" stroke-width="12"/>
  <path d="M83 110c-23-25-31-51-22-77 3-9 15-8 17 1 5 22 14 37 28 48 4-21 12-37 24-50 7-8 20-2 18 9-4 21-3 38 4 51 14-10 23-27 29-52 2-9 15-10 18-1 8 27 0 53-24 78" fill="none" stroke="url(#antler)" stroke-width="15" stroke-linecap="round" stroke-linejoin="round"/>
  <path d="M77 121c14-24 33-36 51-36s37 12 51 36c-6 58-28 89-51 89s-45-31-51-89Z" fill="#3f1d0d" stroke="#fbbf24" stroke-width="10" stroke-linejoin="round"/>
  <path d="M103 126c9 9 17 9 25 0 8 9 16 9 25 0" fill="none" stroke="#fef3c7" stroke-width="8" stroke-linecap="round"/>
  <circle cx="128" cy="147" r="66" fill="none" stroke="#fef3c7" stroke-width="9"/>
  <circle cx="128" cy="147" r="38" fill="none" stroke="#f59e0b" stroke-width="8"/>
  <path d="M128 78v138M59 147h138" stroke="#fef3c7" stroke-width="8" stroke-linecap="round"/>
  <circle cx="128" cy="147" r="12" fill="#ef4444" stroke="#fff7ed" stroke-width="6"/>
</svg>
